<?xml version="1.0" standalone="no"?>
<!DOCTYPE svg PUBLIC "-//W3C//DTD SVG 20010904//EN"
 "http://www.w3.org/TR/2001/REC-SVG-20010904/DTD/svg10.dtd">
<svg version="1.0" xmlns="http://www.w3.org/2000/svg"
 width="1300.000000pt" height="1300.000000pt" viewBox="0 0 1300.000000 1300.000000"
 preserveAspectRatio="xMidYMid meet">

<g transform="translate(0.000000,1300.000000) scale(0.100000,-0.100000)"
fill="#000000" stroke="none">
<path d="M2635 11361 c-17 -10 -40 -31 -50 -47 -19 -28 -20 -50 -20 -651 0
-612 0 -622 21 -649 68 -92 170 -92 238 0 25 33 25 23 25 633 l1 452 535 3
535 3 36 37 c32 31 38 44 41 90 3 41 -1 60 -17 86 -39 63 -26 62 -702 62 -579
0 -615 -1 -643 -19z"/>
<path d="M9068 11365 c-14 -8 -36 -31 -48 -50 -30 -48 -24 -124 11 -161 51
-55 37 -53 595 -54 285 0 519 -1 520 -3 2 -1 4 -240 6 -529 3 -514 3 -527 24
-554 36 -49 69 -67 120 -66 50 0 83 19 117 63 18 24 18 54 18 653 -1 620 -1
628 -22 657 -43 61 -20 59 -696 59 -519 -1 -622 -3 -645 -15z"/>
<path d="M6101 9994 c-141 -19 -261 -51 -288 -77 -39 -35 -29 -98 18 -122 25
-13 37 -13 111 4 174 41 303 54 478 48 255 -8 456 -53 682 -152 43 -19 91 -35
107 -35 56 0 90 67 61 121 -20 37 -232 123 -416 170 -64 16 -166 36 -228 43
-140 19 -389 18 -525 0z"/>
<path d="M6130 9710 c-218 -20 -462 -76 -670 -155 -103 -38 -130 -61 -130
-107 0 -41 15 -64 49 -76 24 -9 47 -3 147 35 210 79 511 143 672 143 27 0 64
3 81 6 64 13 86 99 36 142 -28 24 -40 25 -185 12z"/>
<path d="M6581 9675 c-38 -32 -41 -73 -8 -109 17 -20 37 -28 97 -37 199 -29
425 -102 635 -204 241 -118 434 -255 613 -435 48 -48 97 -91 110 -95 54 -16
113 43 97 97 -15 50 -249 267 -420 390 -231 166 -590 321 -880 381 -201 42
-208 42 -244 12z"/>
<path d="M6115 9419 c-181 -12 -213 -19 -235 -47 -27 -34 -25 -77 5 -107 27
-28 43 -30 130 -15 78 14 379 14 475 0 131 -18 280 -50 379 -81 96 -31 278
-105 296 -121 17 -15 74 -9 95 12 55 55 29 112 -74 159 -258 118 -522 186
-771 196 -66 3 -138 7 -160 9 -22 1 -85 -1 -140 -5z"/>
<path d="M5042 9346 c-104 -66 -248 -172 -270 -199 -19 -22 -18 -72 2 -101 13
-21 25 -26 56 -26 33 0 51 9 102 51 35 28 103 76 151 107 164 106 167 108 167
148 0 44 -37 84 -78 84 -18 0 -66 -23 -130 -64z"/>
<path d="M5565 9309 c-339 -128 -586 -315 -814 -619 -58 -77 -71 -101 -71
-132 0 -50 39 -82 90 -74 19 3 41 13 48 23 196 272 335 405 549 531 85 50 134
72 268 122 79 30 103 43 113 64 17 34 7 90 -14 82 -9 -4 -12 -2 -8 5 4 6 0 15
-7 20 -25 15 -72 9 -154 -22z m85 -83 c0 -2 -8 -10 -17 -17 -16 -13 -17 -12
-4 4 13 16 21 21 21 13z"/>
<path d="M5940 9192 c-180 -25 -433 -136 -610 -268 -199 -149 -445 -446 -564
-683 -36 -71 -25 -120 31 -142 45 -17 79 7 123 87 171 312 411 567 667 711 90
51 228 103 327 123 72 15 96 25 114 45 53 62 0 139 -88 127z"/>
<path d="M6259 9041 c-34 -35 -37 -68 -8 -105 20 -26 22 -26 143 -26 140 0
271 -20 360 -54 92 -36 93 -36 124 -25 30 10 52 44 52 80 0 37 -52 76 -136
102 -138 44 -224 57 -369 57 l-137 0 -29 -29z"/>
<path d="M6005 8971 c-179 -55 -401 -180 -515 -290 -49 -47 -60 -74 -44 -116
7 -18 55 -45 81 -45 10 0 58 32 107 70 145 116 311 201 455 237 81 19 111 44
111 90 0 43 -38 83 -77 82 -15 0 -69 -13 -118 -28z"/>
<path d="M7500 8960 c-13 -13 -20 -33 -20 -56 0 -40 -8 -32 155 -166 106 -88
226 -204 340 -330 61 -67 75 -78 103 -78 43 0 82 38 82 79 0 24 -16 50 -72
113 -135 154 -318 325 -459 431 -44 33 -100 36 -129 7z"/>
<path d="M7033 8938 c-26 -13 -43 -55 -36 -91 4 -20 28 -41 98 -86 102 -66
302 -211 355 -257 108 -93 275 -252 340 -324 41 -46 80 -88 85 -94 63 -67 239
-308 319 -439 27 -43 57 -82 67 -87 51 -28 119 12 119 68 0 46 -196 341 -344
517 -244 291 -560 569 -847 748 -94 58 -116 64 -156 45z"/>
<path d="M6490 8774 c-368 -49 -716 -202 -995 -436 -88 -74 -238 -229 -262
-272 -29 -51 -9 -109 43 -122 44 -11 68 5 150 98 205 236 493 420 794 510 100
29 234 55 355 69 91 10 113 16 132 35 25 25 29 50 12 87 -22 49 -57 54 -229
31z"/>
<path d="M6875 8595 c-17 -16 -25 -35 -25 -59 0 -42 27 -66 108 -96 74 -28
209 -95 297 -149 238 -145 454 -354 607 -586 32 -49 66 -96 75 -102 45 -35
123 7 123 65 0 20 -21 62 -61 123 -162 247 -391 471 -642 628 -147 91 -383
201 -434 201 -13 0 -35 -11 -48 -25z"/>
<path d="M5322 8539 c-48 -19 -228 -225 -314 -359 -97 -152 -102 -168 -59
-210 57 -57 98 -37 171 82 62 101 147 210 244 312 73 77 82 107 44 150 -28 29
-55 38 -86 25z"/>
<path d="M6515 8524 c-507 -77 -905 -360 -1150 -816 -50 -92 -53 -107 -28
-149 19 -32 69 -47 99 -31 11 6 46 58 79 117 245 435 616 678 1113 730 50 6
66 12 82 32 27 35 26 78 -5 108 -28 29 -54 30 -190 9z"/>
<path d="M4550 8327 c-49 -25 -139 -221 -252 -547 -75 -216 -99 -302 -93 -327
8 -33 45 -63 76 -63 52 0 73 34 124 200 70 226 134 393 221 576 42 87 42 107
5 145 -33 32 -44 35 -81 16z"/>
<path d="M6485 8253 c-107 -20 -317 -129 -472 -246 -154 -115 -371 -357 -453
-505 -9 -15 -28 -46 -43 -70 -39 -60 -130 -246 -187 -382 -102 -241 -200 -583
-200 -695 0 -45 29 -75 74 -75 57 0 74 23 96 134 72 356 226 736 419 1036 190
296 469 528 766 635 28 10 58 25 67 33 22 19 32 66 18 91 -13 26 -58 49 -85
44z"/>
<path d="M6791 8201 c-63 -22 -88 -45 -97 -87 -4 -24 0 -37 18 -57 28 -33 55
-35 127 -14 71 22 111 21 203 -2 204 -52 452 -235 586 -431 61 -89 84 -104
135 -87 56 19 64 80 21 149 -119 188 -312 355 -534 462 -172 83 -341 108 -459
67z"/>
<path d="M8275 8180 c-55 -22 -67 -80 -29 -135 83 -122 285 -497 308 -571 18
-59 101 -79 138 -34 15 19 19 35 15 65 -5 46 -103 253 -202 425 -109 189 -143
237 -177 249 -17 6 -31 11 -32 10 -1 0 -10 -4 -21 -9z"/>
<path d="M6408 7964 c-215 -145 -390 -319 -521 -516 -82 -124 -100 -162 -92
-198 10 -48 61 -73 110 -54 9 4 49 57 89 118 153 232 280 361 513 521 124 84
138 104 120 158 -5 15 -17 32 -27 37 -43 23 -78 11 -192 -66z"/>
<path d="M4783 7840 c-39 -16 -215 -344 -303 -565 -78 -197 -160 -461 -160
-519 0 -65 84 -102 130 -56 10 10 26 45 35 77 85 313 212 622 353 865 34 58
62 112 62 121 0 29 -22 65 -47 76 -28 13 -40 13 -70 1z"/>
<path d="M5135 7841 c-19 -8 -134 -171 -207 -296 -182 -308 -311 -664 -373
-1030 -34 -201 -45 -356 -40 -560 6 -224 17 -312 44 -338 43 -44 129 -16 132
43 1 14 -4 102 -10 195 -18 249 2 500 60 767 77 354 214 678 410 971 111 166
121 198 73 236 -28 22 -55 25 -89 12z"/>
<path d="M6795 7815 c-185 -36 -329 -114 -489 -266 -205 -194 -387 -506 -507
-871 -27 -81 -49 -163 -49 -182 0 -63 80 -99 129 -58 13 11 32 55 51 118 66
227 173 458 295 644 79 120 222 272 314 334 124 83 287 136 416 136 46 0 60 4
80 25 30 29 33 74 6 106 -17 21 -29 24 -98 26 -43 1 -109 -4 -148 -12z"/>
<path d="M7240 7695 c-34 -36 -30 -83 12 -119 137 -119 213 -216 280 -356 76
-162 110 -288 173 -653 84 -477 160 -676 342 -884 102 -118 267 -222 408 -259
128 -33 322 -18 366 29 20 22 25 67 9 96 -16 32 -63 45 -107 30 -21 -7 -75
-12 -120 -11 -142 3 -271 63 -397 187 -193 188 -258 359 -361 950 -77 440
-177 681 -365 879 -124 130 -192 162 -240 111z"/>
<path d="M8027 7519 c-66 -10 -167 -52 -193 -81 -23 -25 -23 -82 0 -107 31
-34 61 -34 134 1 58 29 77 33 142 32 125 -2 193 -44 296 -180 88 -117 176
-170 281 -168 73 1 153 48 174 101 14 36 -9 83 -47 99 -30 13 -38 12 -63 -1
-17 -8 -33 -19 -36 -25 -10 -16 -68 -11 -101 9 -17 11 -57 53 -88 95 -103 136
-206 205 -336 226 -73 11 -81 11 -163 -1z"/>
<path d="M6910 7419 c-111 -12 -246 -65 -296 -114 -32 -32 -32 -78 1 -110 32
-33 64 -31 128 5 109 61 251 77 352 39 113 -42 200 -167 249 -360 14 -53 34
-174 46 -270 62 -502 150 -793 315 -1044 76 -114 97 -135 140 -135 82 0 100
79 37 164 -108 144 -195 341 -252 566 -26 106 -40 185 -85 515 -20 143 -47
269 -74 348 -42 122 -144 279 -170 263 -6 -4 -9 -2 -6 6 7 17 -75 72 -145 99
-66 25 -165 36 -240 28z"/>
<path d="M5172 7350 c-38 -16 -136 -238 -218 -495 -68 -214 -120 -466 -144
-710 -12 -118 -15 -477 -4 -587 l7 -68 -89 0 c-218 -1 -421 -88 -623 -268
-103 -92 -121 -147 -63 -192 40 -32 68 -25 130 33 31 28 59 55 62 58 18 21
146 107 204 136 125 63 300 91 396 63 59 -18 110 -15 132 8 23 23 25 66 9 207
-14 114 -14 435 -1 585 30 337 119 683 261 1013 61 142 66 169 31 200 -23 21
-62 28 -90 17z"/>
<path d="M4183 7210 c-33 -13 -48 -44 -81 -160 -36 -124 -66 -274 -87 -437
-19 -140 -22 -504 -5 -638 27 -225 80 -465 109 -499 27 -31 58 -38 92 -20 53
27 55 47 21 191 -57 236 -67 330 -67 633 0 315 10 402 76 659 23 86 43 166 46
178 9 37 -6 72 -37 88 -33 17 -36 17 -67 5z"/>
<path d="M6470 7179 c-27 -11 -97 -92 -173 -199 -132 -188 -251 -515 -293
-807 -26 -177 -24 -505 4 -688 40 -259 110 -481 227 -720 110 -224 297 -491
355 -505 53 -14 99 22 100 77 0 25 -14 50 -65 112 -275 339 -444 783 -477
1258 -35 496 112 999 384 1314 34 39 48 64 48 85 0 29 -31 74 -50 74 -4 0 -14
2 -22 4 -7 3 -24 0 -38 -5z"/>
<path d="M7982 7154 c-61 -30 -77 -57 -68 -108 10 -55 70 -74 132 -41 81 42
159 3 286 -142 121 -138 171 -179 254 -209 112 -41 227 -26 293 38 39 39 47
68 27 106 -26 50 -76 56 -134 17 -46 -31 -83 -31 -147 -1 -49 23 -74 47 -217
208 -92 104 -180 150 -293 156 -71 3 -86 1 -133 -24z"/>
<path d="M6795 7011 c-93 -44 -163 -128 -242 -286 -82 -164 -163 -400 -165
-478 -1 -47 33 -87 73 -87 50 0 74 35 109 164 19 65 55 168 82 230 27 61 52
117 55 125 5 10 2 12 -8 6 -8 -5 -11 -5 -6 1 5 5 11 8 13 6 3 -1 22 23 44 55
84 126 143 158 221 118 73 -38 110 -145 129 -375 58 -716 214 -1151 525 -1466
265 -268 632 -399 950 -339 56 11 85 21 98 36 24 29 22 84 -4 110 -19 19 -29
21 -78 15 -207 -24 -300 -17 -451 36 -273 96 -505 314 -648 608 -111 228 -187
534 -221 890 -6 58 -15 159 -22 225 -14 150 -40 232 -99 309 -93 123 -226 159
-355 97z"/>
<path d="M5704 7020 c-28 -11 -54 -49 -94 -135 -160 -351 -236 -750 -210
-1111 10 -146 21 -177 65 -194 33 -13 80 5 94 36 8 18 8 62 1 162 -25 349 57
761 216 1075 47 93 45 135 -7 162 -32 17 -36 17 -65 5z"/>
<path d="M7983 6824 c-21 -21 -24 -32 -19 -62 7 -49 37 -72 92 -72 75 0 130
-64 176 -203 66 -203 166 -313 337 -373 98 -34 240 -35 325 -3 79 29 100 81
54 133 -28 31 -50 34 -110 17 -65 -19 -189 -10 -251 18 -27 11 -72 45 -101 75
-45 46 -59 69 -91 157 -70 191 -121 265 -218 314 -72 36 -157 36 -194 -1z"/>
<path d="M6868 6689 l-31 -31 6 -156 c8 -203 30 -369 73 -562 33 -145 128
-451 160 -512 27 -51 82 -63 129 -27 23 19 26 27 22 63 -3 23 -25 95 -50 161
-105 277 -176 663 -177 960 -1 83 -8 103 -47 123 -34 19 -52 14 -85 -19z"/>
<path d="M8857 6554 c-36 -19 -108 -21 -174 -4 -40 11 -58 11 -78 2 -60 -28
-57 -114 6 -144 104 -52 312 -32 368 36 21 25 16 74 -9 101 -27 29 -70 32
-113 9z"/>
<path d="M7985 6535 c-32 -31 -31 -55 6 -161 77 -218 163 -374 259 -472 176
-179 428 -236 625 -142 115 55 160 135 105 190 -30 30 -82 26 -124 -10 -49
-43 -99 -61 -175 -62 -236 -2 -399 163 -532 536 -22 62 -49 119 -60 129 -30
25 -75 22 -104 -8z"/>
<path d="M4342 6524 c-38 -16 -48 -46 -63 -199 -15 -151 -6 -371 20 -530 34
-200 51 -235 112 -235 78 0 97 40 70 148 -44 175 -60 409 -42 600 7 67 14 131
16 141 5 28 -30 78 -58 83 -14 3 -39 -1 -55 -8z"/>
<path d="M5705 6168 c-24 -22 -26 -31 -36 -163 -47 -612 124 -1229 482 -1735
229 -324 536 -605 879 -803 142 -82 382 -187 429 -187 38 0 71 37 71 82 0 45
-16 59 -112 97 -550 218 -1033 659 -1317 1204 -208 398 -310 897 -272 1336 8
102 8 128 -4 151 -24 46 -78 54 -120 18z"/>
<path d="M6663 6116 l-28 -24 -3 -167 c-2 -115 2 -200 13 -275 22 -150 102
-398 137 -428 27 -22 66 -24 97 -6 45 27 48 61 13 147 -76 182 -103 335 -101
572 l1 160 -27 22 c-34 30 -67 29 -102 -1z"/>
<path d="M5135 6021 c-47 -20 -48 -28 -42 -264 5 -220 20 -351 62 -531 9 -38
15 -70 13 -71 -2 -2 -39 1 -83 7 -96 12 -281 4 -385 -16 -145 -29 -301 -92
-430 -174 -82 -52 -159 -120 -166 -148 -14 -57 44 -115 98 -98 12 4 50 30 84
58 115 99 309 180 499 212 125 20 270 13 410 -19 115 -28 146 -23 166 25 11
26 8 44 -19 146 -59 218 -91 446 -95 684 -2 132 -4 149 -22 167 -24 24 -63 33
-90 22z"/>
<path d="M6384 5989 c-36 -18 -44 -53 -44 -192 1 -289 73 -598 200 -856 214
-435 604 -790 1071 -974 147 -59 384 -117 474 -117 58 0 89 26 89 74 0 58 -24
73 -150 96 -326 58 -595 183 -862 398 -427 344 -662 849 -662 1420 0 90 -3
114 -17 131 -21 25 -70 35 -99 20z"/>
<path d="M7980 5378 c-21 -23 -26 -68 -10 -98 25 -46 242 -160 378 -198 83
-23 117 -27 232 -27 113 0 148 4 217 24 73 21 84 27 98 56 19 40 8 76 -30 101
-24 16 -30 16 -103 -2 -92 -23 -260 -25 -342 -5 -81 20 -219 82 -289 129 -71
49 -118 55 -151 20z"/>
<path d="M5466 5329 c-35 -28 -34 -58 10 -232 80 -321 185 -578 361 -886 65
-113 78 -129 119 -137 24 -4 37 0 59 19 42 36 38 76 -14 160 -158 257 -306
612 -371 888 -37 158 -39 164 -60 187 -26 28 -69 28 -104 1z"/>
<path d="M7273 5230 c-53 -22 -56 -80 -7 -169 91 -167 256 -347 411 -451 190
-127 424 -212 643 -232 130 -13 181 -7 210 24 27 29 26 79 -2 105 -19 17 -42
21 -134 27 -227 13 -434 82 -620 206 -144 96 -306 278 -382 426 -11 22 -27 45
-34 51 -20 17 -60 23 -85 13z"/>
<path d="M6963 5092 c-27 -4 -63 -47 -63 -74 0 -58 146 -272 268 -391 60 -59
75 -69 107 -70 30 -1 43 5 62 28 38 43 26 76 -60 165 -102 105 -166 189 -215
287 -22 42 -57 62 -99 55z"/>
<path d="M4767 4854 c-192 -35 -412 -139 -518 -245 -29 -29 -25 -83 7 -108 42
-33 70 -26 173 43 53 36 119 74 146 86 263 113 596 104 822 -21 92 -51 163
-31 163 46 0 43 -20 65 -99 105 -193 97 -469 134 -694 94z"/>
<path d="M7493 4528 c-28 -14 -46 -58 -37 -93 15 -60 248 -196 436 -254 170
-52 354 -82 413 -67 30 8 54 54 47 91 -8 43 -36 57 -143 71 -98 13 -294 58
-314 73 -5 4 -32 16 -60 26 -63 23 -171 83 -231 129 -48 37 -73 42 -111 24z"/>
<path d="M5040 4524 c-14 -2 -63 -9 -110 -15 -93 -13 -243 -60 -330 -104 -79
-40 -198 -122 -210 -144 -17 -33 -12 -79 12 -101 35 -32 70 -25 160 34 113 73
195 111 313 143 88 24 118 27 250 27 135 0 160 -3 250 -28 139 -40 156 -41
185 -18 34 28 35 96 1 121 -75 57 -374 106 -521 85z"/>
<path d="M5008 4270 c-141 -25 -286 -91 -368 -168 -64 -58 -72 -99 -26 -139
38 -32 67 -29 123 15 73 57 111 78 198 108 71 25 94 28 210 28 96 0 149 -5
200 -18 277 -74 501 -249 780 -609 71 -93 99 -113 138 -98 74 29 76 81 5 176
-356 478 -694 699 -1088 710 -69 2 -146 0 -172 -5z"/>
<path d="M6856 4098 c-9 -12 -16 -39 -16 -60 0 -33 6 -42 51 -78 202 -160 482
-306 732 -383 179 -56 210 -61 245 -43 33 17 42 34 42 75 0 47 -20 59 -150 96
-283 78 -535 204 -769 382 -54 41 -111 46 -135 11z"/>
<path d="M6102 3980 c-40 -37 -30 -79 40 -167 142 -181 388 -399 598 -533 113
-71 332 -180 364 -180 30 0 74 37 77 65 7 47 -10 71 -63 95 -325 148 -603 361
-830 633 -85 101 -92 107 -127 107 -24 0 -45 -7 -59 -20z"/>
<path d="M5033 3855 c-125 -34 -243 -117 -243 -171 0 -38 42 -84 77 -84 15 0
49 16 77 35 86 59 155 78 271 73 116 -5 194 -31 310 -106 98 -62 154 -111 360
-312 203 -199 330 -300 377 -300 40 0 67 16 78 46 18 46 1 72 -84 136 -44 34
-169 148 -277 253 -108 106 -223 212 -256 237 -135 103 -256 165 -374 193 -80
18 -247 18 -316 0z"/>
<path d="M5197 3490 c-68 -13 -99 -67 -71 -122 17 -33 48 -42 111 -35 91 10
207 -30 282 -97 13 -11 41 -45 62 -73 45 -60 73 -72 117 -49 74 38 49 131 -66
238 -83 78 -166 117 -292 137 -72 12 -88 12 -143 1z"/>
<path d="M6335 3345 c-26 -25 -29 -42 -19 -83 6 -21 49 -53 303 -226 31 -21
65 -36 83 -36 58 0 100 77 66 123 -7 9 -89 68 -183 132 -184 125 -208 133
-250 90z"/>
<path d="M2674 3050 c-40 -9 -56 -19 -48 -31 3 -5 0 -8 -6 -7 -7 2 -22 -10
-33 -25 l-22 -28 0 -623 c0 -692 -4 -653 68 -696 31 -19 55 -20 652 -20 597 0
621 1 652 20 99 60 76 219 -36 250 -22 6 -240 10 -543 10 l-508 0 -2 448 c-3
387 -5 447 -18 444 -11 -3 -11 1 3 16 20 22 22 99 4 151 -13 38 -68 86 -107
94 -14 2 -39 1 -56 -3z"/>
<path d="M10256 3050 c-41 -13 -85 -58 -96 -100 -5 -20 -10 -70 -9 -111 0 -41
0 -269 0 -506 l-1 -433 -515 0 c-556 0 -555 0 -604 -53 -32 -35 -40 -111 -17
-156 10 -17 31 -41 49 -51 31 -19 55 -20 649 -20 360 0 627 4 641 9 14 6 37
25 51 44 l27 35 0 443 c0 244 0 528 0 631 l-1 187 -30 35 c-17 18 -43 37 -58
40 -15 4 -34 9 -42 11 -8 1 -28 -1 -44 -5z m-56 -244 c0 -2 -8 -10 -17 -17
-16 -13 -17 -12 -4 4 13 16 21 21 21 13z"/>
</g>
</svg>
