<svg id="Layer_1" data-name="Layer 1" xmlns="http://www.w3.org/2000/svg" viewBox="0 0 1212.29 287.64"><defs><style>.cls-1{fill:#10743b;}.cls-2{fill:#71481d;}.cls-3{fill:#f0b95c;}.cls-4{fill:#acc737;}</style></defs><title>ArdhiSasa Logo</title><path class="cls-1" d="M691.41,629.94l-6.86,6.77a16.27,16.27,0,0,0-12-5c-5.58,0-9.78,2.75-9.78,7.38,0,3.68,2.32,5.31,10.21,8.06,9.17,3,15.26,7.37,15.26,16.72,0,8.74-5.92,20.49-24.87,20.49-9.77,0-16.55-3.69-20.92-8.49l7.29-7.2a18,18,0,0,0,13.72,5.91c6.69,0,11.66-3.25,11.66-8.83,0-4.2-2.32-6.43-9.69-9-10.89-3.43-15.69-8.4-15.69-16.46,0-8.24,6.6-18,22.64-18C680.69,622.31,686.78,625.05,691.41,629.94Z" transform="translate(-345.71 -414.24)"/><path class="cls-1" d="M736.09,650.18,731.46,683h-12l4.46-30.44c.77-5.32-.94-6.35-3.6-6.35-3.6,0-7.55,4.8-10.89,11.23L705.9,683h-12l8.92-63.54,12.09-1.29-3.86,27.36c3.43-5.58,9.09-9.35,14.58-9.35C733.17,636.2,737.29,641.52,736.09,650.18Z" transform="translate(-345.71 -414.24)"/><path class="cls-1" d="M786.51,640.74l-4.46,29.84a17.65,17.65,0,0,0-.17,2,3.38,3.38,0,0,0,2.48,3.68l-3.43,8c-4.88-.52-8.74-2.66-9.94-7.55-3.17,4.55-7.63,7.72-13.46,7.72-9.69,0-14.75-7.12-14.75-17.92,0-12.86,6.77-30.27,25.64-30.27A38.08,38.08,0,0,1,786.51,640.74ZM755.3,666.47c0,6.6,2.31,8.83,5.91,8.83s6.52-2.66,9.35-6.77L773.9,646a15.45,15.45,0,0,0-5.74-1C758.64,645,755.3,657.29,755.3,666.47Z" transform="translate(-345.71 -414.24)"/><path class="cls-1" d="M856.65,650.18,852,683H840.1l4.46-30.44c.77-5.32-.94-6.35-3.17-6.35-3.35,0-6.86,4.63-9.86,10.72L827.84,683H815.92l4.46-30.44c.77-5.32-.94-6.35-3.17-6.35-3.43,0-7,4.72-9.86,11.15L803.83,683h-12l6.34-45.45h10.38l-.35,7.72c3.78-5.57,8.75-9.09,14.32-9.09,5.32,0,9.18,3,10,8.66,3.77-5.4,8.91-8.66,14.06-8.66C853.82,636.2,857.85,641.52,856.65,650.18Z" transform="translate(-345.71 -414.24)"/><path class="cls-1" d="M893.78,636.2c9.09,0,14,6.43,14,17.75,0,13-5.66,30.44-26,30.44a48.65,48.65,0,0,1-18.1-3.6l8.67-61.31,12.09-1.37-3.26,23.49A18.41,18.41,0,0,1,893.78,636.2Zm-13.89,14.58-3.26,23.49a18.15,18.15,0,0,0,6.35,1.12c9.09,0,12.43-12.44,12.43-21.44,0-6.69-2.66-8.75-6.17-8.75S882.64,647.52,879.89,650.78Z" transform="translate(-345.71 -414.24)"/><path class="cls-1" d="M956.89,640.74l-4.46,29.84c-.08.78-.17,1.38-.17,2a3.38,3.38,0,0,0,2.49,3.68l-3.43,8c-4.89-.52-8.75-2.66-10-7.55-3.17,4.55-7.63,7.72-13.46,7.72-9.69,0-14.75-7.12-14.75-17.92,0-12.86,6.78-30.27,25.64-30.27A38,38,0,0,1,956.89,640.74Zm-31.21,25.73c0,6.6,2.32,8.83,5.92,8.83s6.52-2.66,9.34-6.77L944.29,646a15.47,15.47,0,0,0-5.75-1C929,645,925.68,657.29,925.68,666.47Z" transform="translate(-345.71 -414.24)"/><path class="cls-1" d="M1019.58,672.9,1016.92,683H982.71L991,623.68h12.44l-7,49.22Z" transform="translate(-345.71 -414.24)"/><path class="cls-1" d="M1069.14,640.74l-4.46,29.84a17.65,17.65,0,0,0-.17,2,3.38,3.38,0,0,0,2.49,3.68l-3.43,8c-4.89-.52-8.75-2.66-10-7.55-3.17,4.55-7.63,7.72-13.46,7.72-9.69,0-14.75-7.12-14.75-17.92,0-12.86,6.77-30.27,25.64-30.27A38.05,38.05,0,0,1,1069.14,640.74Zm-31.21,25.73c0,6.6,2.31,8.83,5.91,8.83s6.52-2.66,9.35-6.77l3.34-22.55a15.45,15.45,0,0,0-5.74-1C1041.27,645,1037.93,657.29,1037.93,666.47Z" transform="translate(-345.71 -414.24)"/><path class="cls-1" d="M1107,636.2c7.2,0,11.92,4.37,11.92,10.55,0,7.29-4.12,12.77-12.69,16.12L1115.1,683h-13.2l-8.83-22c10.11-3.09,13.63-6.94,13.63-12.09,0-2.66-1.54-4-4.2-4-3.78,0-8.41,3.09-12.18,10.2l-3.86,28h-12l8.92-63.54,12.17-1.37L1091.86,644C1096.41,638.52,1101.55,636.2,1107,636.2Z" transform="translate(-345.71 -414.24)"/><path class="cls-1" d="M1165.44,655.41c0,12.17-6.09,29-24.87,29-11.92,0-18.61-7.29-18.61-19.21,0-12.34,6.09-29,24.87-29C1158.75,636.2,1165.52,643.57,1165.44,655.41ZM1134.31,666c0,6.43,2.32,9.26,7,9.26,9.61,0,11.75-13.38,11.75-20.75,0-6.43-2.4-9.26-7-9.26C1136.37,645.29,1134.31,658.67,1134.31,666Z" transform="translate(-345.71 -414.24)"/><path class="cls-1" d="M1182.76,676.16c0,2.74-1,4.89-3.51,9.34L1172,697.94h-7.12l5.83-15a6,6,0,0,1-2.4-5,8.07,8.07,0,0,1,8-8.23A6.28,6.28,0,0,1,1182.76,676.16Z" transform="translate(-345.71 -414.24)"/><path class="cls-1" d="M1227.52,657l-3.6,26h-12.43l8.31-59.34h12.44l-3.35,23.41h19.3l3.34-23.41H1264L1255.65,683h-12.44l3.52-26Z" transform="translate(-345.71 -414.24)"/><path class="cls-1" d="M1311.38,640.74l-4.46,29.84c-.08.78-.17,1.38-.17,2a3.38,3.38,0,0,0,2.49,3.68l-3.43,8c-4.89-.52-8.75-2.66-10-7.55-3.17,4.55-7.63,7.72-13.46,7.72-9.69,0-14.75-7.12-14.75-17.92,0-12.86,6.78-30.27,25.64-30.27A38,38,0,0,1,1311.38,640.74Zm-31.21,25.73c0,6.6,2.32,8.83,5.92,8.83s6.52-2.66,9.34-6.77l3.35-22.55a15.47,15.47,0,0,0-5.75-1C1283.52,645,1280.17,657.29,1280.17,666.47Z" transform="translate(-345.71 -414.24)"/><path class="cls-1" d="M1335,674.61a11.35,11.35,0,0,0,5.48-1.62l3.26,8.06a23.76,23.76,0,0,1-11.92,3.34c-9.51-.09-13.55-5.66-12.17-15.78l3.17-22.46h-6.6l1.11-8.58h7.2l2.83-10.2,10.21-1.2-1.63,11.4h10.46l-2.49,8.58h-9.08l-3.18,22.55C1331,673.16,1332.05,674.61,1335,674.61Z" transform="translate(-345.71 -414.24)"/><path class="cls-1" d="M1348.52,683l6.34-45.45h12L1360.52,683Zm21.86-61.4a7.85,7.85,0,0,1-8,6.78c-4.46,0-7-3.26-6.52-7.46a7.93,7.93,0,0,1,8.06-6.78C1368.41,614.16,1371,617.42,1370.38,621.62Z" transform="translate(-345.71 -414.24)"/><path class="cls-1" d="M1437.69,629.94l-6.86,6.77a16.27,16.27,0,0,0-12-5c-5.58,0-9.78,2.75-9.78,7.38,0,3.68,2.32,5.31,10.21,8.06,9.17,3,15.26,7.37,15.26,16.72,0,8.74-5.92,20.49-24.87,20.49-9.77,0-16.55-3.69-20.92-8.49l7.29-7.2a18,18,0,0,0,13.72,5.91c6.69,0,11.66-3.25,11.66-8.83,0-4.2-2.32-6.43-9.69-9-10.89-3.43-15.69-8.4-15.69-16.46,0-8.24,6.6-18,22.64-18C1427,622.31,1433.06,625.05,1437.69,629.94Z" transform="translate(-345.71 -414.24)"/><path class="cls-1" d="M1483.83,640.74l-4.46,29.84a17.65,17.65,0,0,0-.17,2,3.37,3.37,0,0,0,2.48,3.68l-3.43,8c-4.89-.52-8.74-2.66-9.94-7.55-3.18,4.55-7.64,7.72-13.47,7.72-9.69,0-14.75-7.12-14.75-17.92,0-12.86,6.78-30.27,25.64-30.27A38.09,38.09,0,0,1,1483.83,640.74Zm-31.22,25.73c0,6.6,2.32,8.83,5.92,8.83s6.52-2.66,9.35-6.77l3.34-22.55a15.45,15.45,0,0,0-5.74-1C1456,645,1452.61,657.29,1452.61,666.47Z" transform="translate(-345.71 -414.24)"/><path class="cls-1" d="M1527.47,683h-12l5.14-36.87h-12.95l-4.54,32.49c-2,14.32-9.43,19.21-20.15,23.24l-3.09-8.83c6.44-2.57,10-5.4,11.24-14l4.54-32.92h-7l1.2-8.58h7l.69-4.71c1.2-8.49,7.89-14.75,19-14.75a28,28,0,0,1,14.49,3.77l-4.28,7.8a20.29,20.29,0,0,0-9.26-2.48c-5.23,0-7.46,2.06-8.06,6.34l-.6,4h25Z" transform="translate(-345.71 -414.24)"/><path class="cls-1" d="M1551.66,676.24a8.22,8.22,0,0,1-8,8.15,6.38,6.38,0,0,1-6.52-6.6,8.22,8.22,0,0,1,8.06-8.06A6.33,6.33,0,0,1,1551.66,676.24Zm-10.38-14.57,3.94-38H1558l-6.86,38Z" transform="translate(-345.71 -414.24)"/><path class="cls-2" d="M580.2,441.14c-62.66,13.52-151.64,18.67-234.49-26.9l32.51,54.37a385.42,385.42,0,0,0,39,3.09Q501.31,474.09,580.2,441.14Z" transform="translate(-345.71 -414.24)"/><path class="cls-3" d="M505.3,681.21l55.41-93.58a390.09,390.09,0,0,1-88.86,37.61Z" transform="translate(-345.71 -414.24)"/><path class="cls-1" d="M638.94,453.64c-85.21,46.23-163.52,57-222.79,55.37-4.81-.14-9.52-.38-14.18-.67l16.21,27.13c4.18-.19,8.4-.44,12.69-.77C505.79,528.81,575.37,501.62,638.94,453.64Z" transform="translate(-345.71 -414.24)"/><path class="cls-4" d="M439.17,570.57l14.32,23.95q75.74-19.08,138.06-68.83C535.41,554.42,482.7,566.54,439.17,570.57Z" transform="translate(-345.71 -414.24)"/><path class="cls-2" d="M752.66,483V583.81H730.18v-13c-7.93,9.63-19.63,14.35-33.42,14.35-29.46,0-51-20.39-51-51.74s21.53-51.55,51-51.55c12.84,0,24.17,4.35,32.29,13.41V483Zm-23.23,50.42c0-19.26-12.85-31.53-30-31.53-17,0-29.83,12.27-29.83,31.53s12.84,31.54,29.83,31.54C716.58,564.93,729.43,552.66,729.43,533.39Z" transform="translate(-345.71 -414.24)"/><path class="cls-2" d="M828.76,481.84v22.47a30.58,30.58,0,0,0-5.48-.56c-17.93,0-29.27,10.57-29.27,31.15v48.91h-23.6V483h22.47V497.7C799.68,487.13,812,481.84,828.76,481.84Z" transform="translate(-345.71 -414.24)"/><path class="cls-2" d="M933.38,443.7V583.81H910.72v-13c-7.93,9.63-19.64,14.35-33.42,14.35-29.27,0-51-20.39-51-51.74s21.72-51.55,51-51.55c13,0,24.55,4.35,32.48,13.6V443.7Zm-23.23,89.69c0-19.26-13-31.53-30-31.53s-30,12.27-30,31.53,13,31.54,30,31.54S910.15,552.66,910.15,533.39Z" transform="translate(-345.71 -414.24)"/><path class="cls-2" d="M1050.46,526v57.78h-23.6V529.05c0-17.94-8.88-26.62-24-26.62-16.8,0-28.14,10.19-28.14,30.4v51h-23.6V443.7h23.6v51c7.75-8.31,19.64-12.84,33.61-12.84C1032.53,481.84,1050.46,495.63,1050.46,526Z" transform="translate(-345.71 -414.24)"/><path class="cls-2" d="M1064.07,452.2c0-7.93,6.42-14.17,15.1-14.17s15.11,5.86,15.11,13.6c0,8.31-6.23,14.73-15.11,14.73C1070.49,466.36,1064.07,460.13,1064.07,452.2Zm3.21,30.77h23.6V583.81h-23.6Z" transform="translate(-345.71 -414.24)"/><path class="cls-2" d="M1098.63,571.92l4.34-7.56c7.55,6.42,21,11.9,35.5,11.9,20.76,0,29.08-7.37,29.08-18.51,0-28.7-65.34-7.55-65.34-46.26,0-14.92,12.46-27,37.39-27,12.46,0,26.06,3.77,33.8,9.63l-4.34,7.55c-8.31-6-19.07-8.87-29.65-8.87-19.26,0-27.75,7.93-27.75,18.5,0,29.65,65.33,8.69,65.33,46.26,0,16.06-13.79,27-38.9,27C1121.85,584.57,1106.36,579.09,1098.63,571.92Z" transform="translate(-345.71 -414.24)"/><path class="cls-2" d="M1277.83,485.24v98.57h-9.25V560.59c-7.74,15.29-22.66,24-40.42,24-27.75,0-48.71-20.58-48.71-50,0-29.65,21-50,48.71-50,17.57,0,32.3,8.68,40.23,23.6V485.24Zm-9.44,49.29c0-24.74-17-41.55-39.65-41.55s-39.66,16.81-39.66,41.55,17,41.54,39.66,41.54S1268.39,559.26,1268.39,534.53Z" transform="translate(-345.71 -414.24)"/><path class="cls-2" d="M1289.92,571.92l4.34-7.56c7.56,6.42,21,11.9,35.5,11.9,20.78,0,29.09-7.37,29.09-18.51,0-28.7-65.34-7.55-65.34-46.26,0-14.92,12.46-27,37.39-27,12.46,0,26.06,3.77,33.8,9.63l-4.34,7.55c-8.31-6-19.07-8.87-29.65-8.87-19.26,0-27.76,7.93-27.76,18.5,0,29.65,65.34,8.69,65.34,46.26,0,16.06-13.79,27-38.9,27C1313.15,584.57,1297.67,579.09,1289.92,571.92Z" transform="translate(-345.71 -414.24)"/><path class="cls-2" d="M1472.79,485.24v98.57h-9.25V560.59c-7.75,15.29-22.67,24-40.42,24-27.75,0-48.71-20.58-48.71-50,0-29.65,21-50,48.71-50,17.56,0,32.3,8.68,40.23,23.6V485.24Zm-9.44,49.29c0-24.74-17-41.55-39.66-41.55S1384,509.79,1384,534.53s17,41.54,39.65,41.54S1463.35,559.26,1463.35,534.53Z" transform="translate(-345.71 -414.24)"/></svg>